<?xml version="1.0" encoding="UTF-8"?>
<!DOCTYPE svg PUBLIC "-//W3C//DTD SVG 1.1//EN" "http://www.w3.org/Graphics/SVG/1.1/DTD/svg11.dtd">
<!-- Creator: CorelDRAW 2020 (64 Bit) -->
<svg xmlns="http://www.w3.org/2000/svg" xml:space="preserve" width="237.455mm" height="26.2508mm" version="1.1" style="shape-rendering:geometricPrecision; text-rendering:geometricPrecision; image-rendering:optimizeQuality; fill-rule:evenodd; clip-rule:evenodd"
viewBox="0 0 23745.52 2625.08"
 xmlns:xlink="http://www.w3.org/1999/xlink"
 xmlns:xodm="http://www.corel.com/coreldraw/odm/2003">
 <defs>
  <style type="text/css">
   <![CDATA[
    .str1 {stroke:#00ABD0;stroke-width:254;stroke-miterlimit:22.9256}
    .str2 {stroke:#00ABD0;stroke-width:16.93;stroke-miterlimit:22.9256}
    .str0 {stroke:#201E1F;stroke-width:16.93;stroke-miterlimit:22.9256}
    .fil3 {fill:none}
    .fil4 {fill:#00ABD0}
    .fil2 {fill:#201E1F}
    .fil0 {fill:#00ABD0;fill-rule:nonzero}
    .fil1 {fill:#201E1F;fill-rule:nonzero}
   ]]>
  </style>
 </defs>
 <g id="Camada_x0020_1">
  <metadata id="CorelCorpID_0Corel-Layer"/>
  <path class="fil0" d="M20633.25 1860.06l965.19 0.02 -482.58 711.18 -482.61 -711.2zm482.59 0.01m241.31 355.6m-482.6 -0.01"/>
  <g>
   <path class="fil1" d="M1399.43 2596.65c-201.13,0 -387.12,-31.16 -557.96,-93.49 -170.84,-62.32 -318.66,-151.1 -443.46,-266.34 -124.8,-115.25 -222.34,-251.06 -292.62,-407.46 -70.27,-156.4 -105.41,-328.67 -105.41,-516.82 0,-188.15 35.14,-360.42 105.41,-516.82 70.28,-156.4 167.82,-292.22 292.62,-407.46 124.8,-115.24 272.62,-204.02 443.46,-266.35 170.84,-62.32 356.83,-93.48 557.96,-93.48 235.06,0 445.28,39.98 630.66,119.94 185.38,79.96 339.87,195.2 463.45,345.72l-458 402.17c-82.39,-94.08 -172.66,-165.81 -270.8,-215.2 -98.14,-49.38 -207.8,-74.08 -328.96,-74.08 -104.2,0 -199.92,16.46 -287.16,49.39 -87.24,32.93 -161.75,80.55 -223.55,142.87 -61.8,62.33 -110.25,137 -145.4,224.02 -35.14,87.02 -52.7,183.44 -52.7,289.28 0,105.83 17.56,202.26 52.7,289.27 35.15,87.02 83.6,161.69 145.4,224.02 61.8,62.32 136.31,109.95 223.55,142.87 87.24,32.93 182.96,49.39 287.16,49.39 121.16,0 230.82,-24.69 328.96,-74.08 98.14,-49.39 188.41,-121.12 270.8,-215.19l458 402.16c-123.58,148.17 -278.07,262.82 -463.45,343.96 -185.38,81.14 -395.6,121.71 -630.66,121.71zm4857.71 -49.39l0 -2469.45 592.5 0 1403.09 1643.95 -279.89 0 0 -1643.95 705.18 0 0 2469.45 -592.5 0 -1403.09 -1643.95 279.89 0 0 1643.95 -705.18 0zm7064.14 49.39c-201.13,0 -387.12,-31.16 -557.96,-93.49 -170.84,-62.32 -318.66,-151.1 -443.46,-266.34 -124.8,-115.25 -222.34,-251.06 -292.62,-407.46 -70.27,-156.4 -105.41,-328.67 -105.41,-516.82 0,-188.15 35.14,-360.42 105.41,-516.82 70.28,-156.4 167.82,-292.22 292.62,-407.46 124.8,-115.24 272.62,-204.02 443.46,-266.35 170.84,-62.32 356.83,-93.48 557.96,-93.48 235.06,0 445.28,39.98 630.66,119.94 185.39,79.96 339.87,195.2 463.45,345.72l-458 402.17c-82.39,-94.08 -172.66,-165.81 -270.8,-215.2 -98.14,-49.38 -207.8,-74.08 -328.96,-74.08 -104.2,0 -199.92,16.46 -287.16,49.39 -87.23,32.93 -161.75,80.55 -223.55,142.87 -61.79,62.33 -110.25,137 -145.4,224.02 -35.13,87.02 -52.7,183.44 -52.7,289.28 0,105.83 17.57,202.26 52.7,289.27 35.15,87.02 83.61,161.69 145.4,224.02 61.8,62.32 136.32,109.95 223.55,142.87 87.24,32.93 182.96,49.39 287.16,49.39 121.16,0 230.82,-24.69 328.96,-74.08 98.14,-49.39 188.41,-121.12 270.8,-215.19l458 402.16c-123.58,148.17 -278.06,262.82 -463.45,343.96 -185.38,81.14 -395.6,121.71 -630.66,121.71zm2145.33 -49.39l0 -1915.58 -781.51 0 0 -553.87 2279.11 0 0 553.87 -777.88 0 0 1915.58 -719.72 0zm2534.27 -553.86l1377.64 0 0 553.86 -1981.03 0 0 -437.44 952.35 -864.31c67.85,-61.15 118.13,-115.24 150.85,-162.28 32.71,-47.04 54.53,-89.96 65.43,-128.76 10.91,-38.81 16.36,-74.67 16.36,-107.6 0,-79.96 -27.26,-142.29 -81.79,-186.97 -54.52,-44.69 -136.31,-67.03 -245.35,-67.03 -92.09,0 -178.12,19.99 -258.08,59.97 -79.97,39.98 -145.4,99.96 -196.29,179.92l-534.34 -289.28c94.52,-155.22 231.43,-279.87 410.75,-373.94 179.32,-94.08 393.79,-141.11 643.38,-141.11 196.29,0 368.34,30.57 516.16,91.72 147.83,61.15 263.54,148.16 347.14,261.05 83.61,112.89 125.41,245.77 125.41,398.64 0,79.97 -10.91,159.34 -32.72,238.13 -21.81,78.78 -63.61,162.28 -125.4,250.47 -61.79,88.19 -153.28,186.38 -274.44,294.57l-756.07 677.33 -119.96 -246.94 0 0zm1650.99 553.86l1123.2 -2469.45 708.81 0 1126.82 2469.45 -748.79 0 -879.65 -2127.25 283.53 0 -879.66 2127.25 -734.26 0zm998.09 -637.98l951.73 8.69 -951.73 -8.69zm2375.86 637.98l0 -2469.45 719.72 0 0 2469.45 -719.72 0z"/>
  </g>
  <rect class="fil2 str0" x="9398.44" y="77.8" width="1995.59" height="539.75"/>
  <rect class="fil2 str0" x="9398.44" y="1049.36" width="1995.59" height="539.75"/>
  <rect class="fil2 str0" x="9398.44" y="2006.1" width="1995.59" height="539.75"/>
  <ellipse class="fil3 str1" cx="4244.09" cy="1307.42" rx="1081.41" ry="1081.42"/>
  <path class="fil4 str2" d="M4017.7 1321.33c-6.7,-52.41 -17.73,-156.75 -28.76,-261.1 -25.71,2.22 -51.41,4.43 -169,14.95 -117.59,10.52 -327.07,29.33 -431.8,38.74 -104.74,9.41 -104.74,9.41 -104.74,50.19 0,40.78 0,122.35 0,203.91 0,0 0,0 124.29,1.11 124.29,1.11 372.88,3.33 621.46,5.55 -2.37,-0.47 -4.75,-0.94 -11.45,-53.35z"/>
  <path class="fil4 str2" d="M4418.97 1510.56c-18.82,258.52 -37.63,517.04 -56.45,775.55 0,0 0,0 -40.78,0 -40.78,0 -122.35,0 -203.91,0 0,0 0,0 -8.42,-154.39 -8.43,-154.41 -25.28,-463.22 -42.13,-772.02 0,0 0,0 58.62,25.14 58.61,25.14 175.84,75.44 293.07,125.72z"/>
  <path class="fil4 str2" d="M4248.26 877.35c188.91,0 342.05,153.14 342.05,342.04 0,188.9 -153.14,342.04 -342.05,342.04 -188.91,0 -342.05,-153.14 -342.05,-342.04 0,-188.9 153.14,-342.04 342.05,-342.04zm0 239.91c56.41,0 102.13,45.73 102.13,102.13 0,56.4 -45.72,102.13 -102.13,102.13 -56.41,0 -102.13,-45.73 -102.13,-102.13 0,-56.4 45.72,-102.13 102.13,-102.13z"/>
  <path class="fil4 str2" d="M4480.24 1321.33c6.7,-52.41 17.73,-156.75 28.76,-261.1 25.71,2.22 51.41,4.43 169,14.95 117.59,10.52 327.07,29.33 431.8,38.74 104.74,9.41 104.74,9.41 104.74,50.19 0,40.78 0,122.35 0,203.91 0,0 0,0 -124.29,1.11 -124.29,1.11 -372.88,3.33 -621.46,5.55 2.37,-0.47 4.75,-0.94 11.45,-53.35z"/>
  <path class="fil4 str2" d="M4244.09 2124.13c146.19,0 264.71,118.52 264.71,264.71 0,146.19 -118.52,264.71 -264.71,264.71 -146.19,0 -264.71,-118.52 -264.71,-264.71 0,-146.19 118.52,-264.71 264.71,-264.71zm0 185.67c43.65,0 79.04,35.39 79.04,79.04 0,43.65 -35.39,79.04 -79.04,79.04 -43.65,0 -79.04,-35.39 -79.04,-79.04 0,-43.65 35.39,-79.04 79.04,-79.04z"/>
  <path class="fil4 str2" d="M3174.28 966.99c146.19,0 264.71,118.52 264.71,264.71 0,146.19 -118.52,264.71 -264.71,264.71 -146.19,0 -264.71,-118.52 -264.71,-264.71 0,-146.19 118.52,-264.71 264.71,-264.71zm0 185.67c43.65,0 79.04,35.39 79.04,79.04 0,43.65 -35.39,79.04 -79.04,79.04 -43.65,0 -79.04,-35.39 -79.04,-79.04 0,-43.65 35.39,-79.04 79.04,-79.04z"/>
  <path class="fil4 str2" d="M5309.78 967.01c146.19,0 264.7,118.51 264.7,264.69 0,146.18 -118.51,264.69 -264.7,264.69 -146.19,0 -264.7,-118.51 -264.7,-264.69 0,-146.18 118.51,-264.69 264.7,-264.69zm0 185.66c43.65,0 79.03,35.38 79.03,79.03 0,43.65 -35.38,79.03 -79.03,79.03 -43.65,0 -79.03,-35.38 -79.03,-79.03 0,-43.65 35.38,-79.03 79.03,-79.03z"/>
 </g>
</svg>
